<svg width="1920" height="1080" xmlns="http://www.w3.org/2000/svg">
  <rect width="100%" height="100%" fill="#f8fafc"/>
  
  <!-- Sidebar -->
  <rect x="0" y="0" width="280" height="1080" fill="#1e293b"/>
  <rect x="40" y="40" width="200" height="40" rx="8" fill="#334155"/>
  <rect x="40" y="120" width="200" height="20" rx="4" fill="#475569"/>
  <rect x="40" y="160" width="200" height="20" rx="4" fill="#475569"/>
  <rect x="40" y="200" width="200" height="20" rx="4" fill="#475569"/>
  
  <!-- Header -->
  <rect x="280" y="0" width="1640" height="80" fill="#ffffff"/>
  <text x="320" y="50" font-family="Arial" font-size="24" fill="#0f172a" font-weight="bold">No Child Left Behind Engine</text>
  
  <!-- Content -->
  <rect x="320" y="120" width="1560" height="920" rx="16" fill="#ffffff" stroke="#e2e8f0" stroke-width="2"/>
  
  <!-- Dashboard Grid -->
  <rect x="360" y="160" width="300" height="150" rx="8" fill="#eff6ff"/>
  <text x="380" y="200" font-family="Arial" font-size="18" fill="#1e40af">At Risk Students</text>
  <text x="380" y="260" font-family="Arial" font-size="48" fill="#1e40af" font-weight="bold">12</text>
  
  <rect x="680" y="160" width="300" height="150" rx="8" fill="#f0fdf4"/>
  <text x="700" y="200" font-family="Arial" font-size="18" fill="#166534">Interventions Active</text>
  <text x="700" y="260" font-family="Arial" font-size="48" fill="#166534" font-weight="bold">45</text>
  
  <rect x="1000" y="160" width="300" height="150" rx="8" fill="#fef2f2"/>
  <text x="1020" y="200" font-family="Arial" font-size="18" fill="#991b1b">Pending Reviews</text>
  <text x="1020" y="260" font-family="Arial" font-size="48" fill="#991b1b" font-weight="bold">3</text>
  
  <!-- Chart Area -->
  <rect x="360" y="350" width="940" height="400" rx="8" fill="#f8fafc"/>
  <path d="M400 700 L400 400 L1200 400 L1200 700 Z" fill="none" stroke="#cbd5e1" stroke-width="2"/>
  <path d="M400 650 L500 600 L600 620 L700 550 L800 580 L900 500 L1000 520 L1100 450 L1200 480" fill="none" stroke="#3b82f6" stroke-width="4"/>
  
  <!-- List -->
  <rect x="1340" y="160" width="500" height="840" rx="8" fill="#f8fafc"/>
  <text x="1360" y="200" font-family="Arial" font-size="18" fill="#334155">Priority Actions</text>
  <rect x="1360" y="220" width="460" height="60" rx="4" fill="#ffffff" stroke="#e2e8f0"/>
  <rect x="1360" y="290" width="460" height="60" rx="4" fill="#ffffff" stroke="#e2e8f0"/>
  <rect x="1360" y="360" width="460" height="60" rx="4" fill="#ffffff" stroke="#e2e8f0"/>
  
  <!-- Watermark -->
  <text x="1700" y="1040" font-family="Arial" font-size="24" fill="#94a3b8" opacity="0.5">EdPsych Connect</text>
</svg>